<svg width="726" height="366" viewBox="0 0 726 366" fill="none" xmlns="http://www.w3.org/2000/svg">
<g id="Group 1">
<g id="zadn&#195;&#173; kolo">
<circle id="zadn&#195;&#173; kolo_2" cx="559.5" cy="298.5" r="65.5" fill="white" stroke="black" stroke-width="4"/>
<path id="Vector 4" d="M521.715 334.719C522.927 326.839 529.086 319.14 532.153 311.778C536.386 301.62 544.722 292.193 550.542 282.83C553.959 277.333 555.768 269.757 561.466 265.958C564.319 264.056 565.578 280.739 565.957 283.315C567.193 291.722 567.596 301.043 567.596 309.533C567.596 314.849 567.45 321.571 569.78 326.465C572.069 331.272 565.134 323.502 564.379 322.702C560.453 318.545 558.137 313.67 554.972 308.987C549.056 300.231 542.156 292.602 536.037 284.104C533.838 281.05 531.624 278.331 528.512 276.214C525.823 274.386 530.197 274.706 531.546 274.879C537.16 275.601 542.786 277.697 548.296 279.006C556.261 280.898 563.705 285.19 571.601 287.503C581.237 290.325 590.986 292.81 600.853 294.664C607.196 295.856 604.278 296.412 600.368 296.485C593.752 296.607 586.494 295.486 580.097 297.577C572.317 300.121 564.357 302.585 556.671 305.467C546.203 309.392 536.921 315.236 526.084 318.333" stroke="black" stroke-width="3" stroke-linecap="round"/>
</g>
<g id="p&#197;&#153;edn&#195;&#173; kolo">
<circle id="Ellipse 1" cx="160.5" cy="298.5" r="65.5" fill="white" stroke="black" stroke-width="4"/>
<path id="Vector 5" d="M128.172 328.164C128.172 315.313 125.868 299.618 128.415 286.653C129.048 283.43 131.578 281.103 132.36 277.974C132.971 275.53 132.621 273.16 133.634 270.752C134.946 267.637 134.849 263.247 136.669 260.435C138.936 256.932 148.14 275.906 148.989 277.307C156.786 290.172 164.561 303.029 174.053 314.691C176.123 317.234 180.103 321.847 174.539 317.483C169.663 313.659 164.647 313.185 159.063 311.111C145.541 306.088 134.714 295.43 119.737 294.36C116.149 294.104 112.684 292.115 109.238 292.115C104.618 292.115 118.083 289.442 122.468 287.988C136.449 283.354 150.357 278.528 164.282 273.726C174.806 270.097 184.496 265.451 195.659 265.897C200.068 266.074 189.413 275.986 188.74 276.579C179.872 284.396 170.128 291.197 161.491 299.276C155.118 305.238 147.692 318.745 139.097 321.61" stroke="black" stroke-width="3" stroke-linecap="round"/>
</g>
<g id="auto">
<path id="Vector 1" d="M10.5626 313.131C26.0724 313.131 41.3607 315.316 56.929 315.316C59.5714 315.316 66.9653 315.709 67.3069 312.464C68.5254 300.888 71.4854 290.168 75.0144 279.024C79.1682 265.907 88.0071 253.419 93.5852 240.669C99.3927 227.395 115.56 220.821 127.45 214.876C147.828 204.687 164.383 203.129 185.954 209.292C191.593 210.904 196.582 214.155 202.279 215.908C206.702 217.268 209.933 221.305 213.992 222.705C220.47 224.938 226.37 231.195 228.8 237.513C230.575 242.127 235.598 247.605 235.598 252.564C235.598 265.328 242.946 277.584 243.244 290.434C243.395 296.915 245.429 302.629 245.429 309.247C245.429 315.53 291.736 312.668 300.292 313.374C332.015 315.99 364.163 311.729 395.574 317.44C413.51 320.701 431.691 314.224 449.466 314.224C453.269 314.224 457.072 314.224 460.875 314.224C462.675 314.224 465.496 313.715 467.187 314.467C468.326 314.973 470.086 318.059 470.95 317.319C473.039 315.528 471.556 307.156 471.556 304.331C471.556 297.565 475.113 290.297 477.018 283.879C482.752 264.568 489.611 240.999 503.175 225.739C509.9 218.174 515.852 210.168 526.783 209.414C541.555 208.395 558.644 207.775 573.393 209.596C584.527 210.971 594.943 216.002 604.83 220.884C611.496 224.176 618.139 226.163 623.4 231.687C631.279 239.959 632.612 253.126 636.509 263.427C640.981 275.246 643.507 287.847 647.979 299.476C649.866 304.382 647.189 311.311 653.381 310.947C662.998 310.381 670.259 304.374 680.327 307.73C685.124 309.329 690 309.229 694.407 311.432C697.294 312.876 701.004 314.224 704.238 314.224" stroke="black" stroke-width="3" stroke-linecap="round"/>
<path id="Vector 2" d="M11.655 310.947C5.12032 310.947 6.193 312.17 6.193 303.785C6.193 294.912 7.94559 286.534 8.86332 277.75C9.85398 268.268 9.47021 258.685 9.47021 249.165C9.47021 231.511 8.64195 213.699 8.37781 196.002C8.17179 182.198 1.82339 169.244 1.82339 155.461C1.82339 145.427 2.03433 135.263 6.193 125.906C7.82724 122.229 24.1479 126.248 27.7983 126.331C34.4635 126.482 40.5033 129.111 47.0974 130.093C52.5437 130.904 58.0548 130.7 63.5441 130.7C68.4599 130.7 73.3758 130.7 78.2916 130.7" stroke="black" stroke-width="3" stroke-linecap="round"/>
<path id="Vector 3" d="M709.7 314.224C714.31 314.224 718.021 314.356 720.017 309.794C723.655 301.478 720.119 288.224 721.231 279.328C723.385 262.098 724.345 245.083 723.901 227.681C723.519 212.686 719.857 198.076 718.439 183.196C717.897 177.5 716.054 172.242 713.827 166.992C710.125 158.266 708.286 148.816 706.423 139.5C705.811 136.44 705.331 133.86 705.331 130.7C705.331 124.028 699.619 125.481 693.8 125.238C659.816 123.822 625.732 121.961 591.721 121.961" stroke="black" stroke-width="3" stroke-linecap="round"/>
<path id="Vector 6" d="M81.5688 129.608C79.1595 88.649 78.2916 47.4952 78.2916 6.22703C78.2916 0.681741 106.068 2.88913 112.399 2.88913C119.082 2.88913 125.265 0.177958 125.265 7.98701C125.265 15.9373 125.265 23.8875 125.265 31.8378C125.265 57.5932 123.966 83.4471 130.241 108.549C131.021 111.666 132.835 114.029 132.912 117.349C133.063 123.857 142.397 119.776 147.356 119.776C160.921 119.776 174.588 119.449 188.139 120.019C239.095 122.162 289.847 122.081 340.711 126.452C373.376 129.259 406.247 130.431 438.966 132.278C452.488 133.041 467.143 134.187 480.66 132.4C489.096 131.284 498.255 131.531 506.513 129.608C523.05 125.757 540.76 127.16 557.674 126.391C567.905 125.926 578.213 125.238 588.444 125.238" stroke="black" stroke-width="3" stroke-linecap="round"/>
<path id="Vector 7" d="M201.733 123.053C201.733 132.814 205.01 142.263 205.01 152.063C205.01 155.703 205.705 159.996 204.464 163.472C202.56 168.804 204.39 169.513 208.955 171.24C235.569 181.311 255.776 202.702 277.716 219.792C286.019 226.259 294.826 233.276 303.691 238.848C307.777 241.416 307.367 243.336 312.551 242.611C321.842 241.31 331.216 240.564 340.59 241.397C362.255 243.323 383.369 248.68 405.163 248.68C415.561 248.68 425.959 248.68 436.357 248.68C437.337 248.68 444.625 249.521 445.096 247.951C446.674 242.692 445.339 235.266 445.339 229.866C445.339 223.158 444.921 216.284 445.582 209.596C447.079 194.433 444.246 179.3 444.246 164.018C444.246 158.673 444.515 142.305 438.784 139.439" stroke="black" stroke-width="3" stroke-linecap="round"/>
<path id="Vector 8" d="M418.029 172.211C418.029 177.369 421.152 191.056 413.113 185.381C407.862 181.675 395.959 184.228 389.626 184.228" stroke="black" stroke-width="3" stroke-linecap="round"/>
<path id="Vector 9" d="M141.651 113.222C149.998 110.13 157.106 102.133 163.742 96.3502C167.986 92.6516 173.822 82.6345 179.885 82.6345" stroke="black" stroke-width="3" stroke-linecap="round"/>
<path id="Vector 10" d="M176.608 74.9877C182.385 79.6092 188.3 85.7495 191.659 92.4661C193.235 95.6195 194.333 99.1443 197.606 100.963C197.966 101.162 196.602 94.7261 196.514 94.1654C195.837 89.8608 194.59 86.3317 192.751 82.3918C190.426 77.4104 185.552 71.6812 181.827 67.5836C179.901 65.4649 179.631 65.7111 176.851 64.0637C172.282 61.3563 171.423 61.1486 172.481 67.0981C173.276 71.568 172.626 73.0535 176.608 74.9877C180.051 76.6599 184.596 77.7857 185.347 81.5421" stroke="black" stroke-width="3" stroke-linecap="round"/>
<path id="Vector 11" d="M422.398 129.608C424.577 129.39 426.536 127.886 428.346 126.816C438.647 120.729 448.926 114.593 459.358 108.731C478.806 97.8013 499.157 88.2951 518.408 77.0511C534.851 67.4477 551.198 57.4963 567.567 47.7383C575.192 43.1926 583.254 39.0637 590.446 33.8405C595.85 29.9166 600.198 24.9531 605.315 20.7317C612.407 14.8808 612.062 26.4507 613.569 32.2626C614.803 37.0217 617.714 42.7407 617.938 47.6776C618.044 49.9962 618.621 52.9403 616.361 54.232C613.042 56.1285 616.195 55.3244 618.849 55.3244C624.371 55.3244 625.926 62.2972 627.163 66.4912C628.719 71.7654 630.514 72.1338 625.16 74.927C622.628 76.2482 618.372 76.8316 616.239 78.5076C614.314 80.0201 627.58 83.1026 628.134 83.3021C635.593 85.9871 641.76 97.5619 636.873 104.543C631.987 111.524 628.302 118.571 623.886 125.845C622.127 128.742 621.138 133.511 620.123 127.423" stroke="black" stroke-width="3" stroke-linecap="round"/>
<path id="Vector 12" d="M615.754 57.5092C603.302 57.5092 589.228 72.7696 579.886 79.1145C566 88.5465 551.787 98.5163 536.494 105.575C524.761 110.99 506.852 112.167 498.867 124.146" stroke="black" stroke-width="3" stroke-linecap="round"/>
<path id="Vector 13" d="M617.938 82.6345C610.591 94.8163 600.921 106.128 589.779 115.042C587.027 117.244 583.664 117.865 580.797 119.776" stroke="black" stroke-width="3" stroke-linecap="round"/>
</g>
</g>
</svg>
